<svg xmlns="http://www.w3.org/2000/svg" version="1.1" id="prefix__图层_1" width="415" height="394" x="0" y="0" viewBox="0 0 415 394">
  <path id="prefix__prefix-LSD-Fill-3" d="M147.1 42.8v92.4L6.6 365C4.3 359.6 3 353.5 3 347V48C3 14.4 37.7-7.8 68.1 6.3l79 36.5z" fill="#00e2ee"/>
  <path id="prefix__prefix-gB_-Fill-5" d="M147.1 135.2v217l-78.9 36.5c-24.5 11.3-51.8-1-61.5-23.7l140.4-229.8z" fill="#00ceed"/>
  <path id="prefix__prefix-gRK-Fill-7" d="M250.2 221.4L178.7 334l-1.8 2.6-32.4 15.6v-217l44-72.1 6.9 3.2 54.8 155.1z" fill="#06bbf1"/>
  <path id="prefix__prefix-VV1-Fill-13" d="M313.3 122l-63.1 99.4-54.6-155.1 117.2 54.1.5 1.6z" fill="#2693ea"/>
  <path id="prefix__prefix-j9Q-Fill-15" d="M338.6 185l-64.8 100.7-23.5-66.8 63.1-99.4 25.2 65.5z" fill="#4c69e4"/>
  <path id="prefix__prefix-m-H-Fill-17" d="M360.7 248.8l-87.8 40.5-.6-.8-1-2.9L336.1 185l24.6 63.8z" fill="#9561e8"/>
  <path id="prefix__prefix-Z2_-Fill-21" d="M386.8 236.7l-26.1 12.1-24.6-63.8 27.3-42.5 23.4 10.8c35.6 16.5 35.6 67 0 83.4" fill="#e058eb"/>
</svg>
