<svg t="1656072476018" class="icon" viewBox="0 0 1024 1024" version="1.1" xmlns="http://www.w3.org/2000/svg" p-id="1410"
  width="200" height="200">
  <path
    d="M512 1024C229.230021 1024 0 794.769979 0 512S229.230021 0 512 0s512 229.230021 512 512-229.230021 512-512 512z m248.300679-758.012243l-2.297023-2.297023c-52.932428-52.921694-139.621434-52.921694-192.554935 0L442.70504 386.411874c-52.932428 52.921694-52.932428 139.5946 0 192.516294l2.297023 2.297023c4.36327 4.361124 9.070021 8.379841 13.892696 12.054004l44.896067-44.88748c-5.28208-3.098834-10.219606-6.772998-14.697727-11.248973l-2.297024-2.297023c-28.704201-28.698834-28.704201-75.536637 0-104.236545l122.744755-122.718994c28.705275-28.699908 75.551665-28.699908 104.256939 0l2.297023 2.29595c28.705275 28.698834 28.705275 75.536637 0 104.235472l-55.459153 55.448419c9.64535 23.763455 14.238323 49.133753 13.778919 74.50405l85.886121-85.868947c52.932428-52.921694 52.932428-139.5946 0-192.516294zM578.882013 442.776956c-4.36327-4.362197-9.070021-8.380914-13.892696-12.054004l-44.894994 44.886406c5.281006 3.098834 10.218532 6.772998 14.696654 11.248973l2.297023 2.297023c28.704201 28.698834 28.704201 75.536637 0 104.236545L414.344319 716.110893c-28.705275 28.699908-75.551665 28.699908-104.25694 0l-2.297023-2.29595c-28.705275-28.698834-28.705275-75.536637 0-104.235471l55.574005-55.44842c-9.64535-23.763455-14.238323-49.133753-13.778919-74.50405l-85.886121 85.868948c-52.932428 52.921694-52.932428 139.5946 0 192.516293l2.297023 2.297023c52.932428 52.921694 139.621434 52.921694 192.554935 0l122.743681-122.720067c52.932428-52.921694 52.932428-139.5946 0-192.516293l-2.411874-2.297023z"
    fill="#0088bb" p-id="1411"></path>
</svg>
